<svg xmlns="http://www.w3.org/2000/svg" width="241" height="54"><path fill-rule="evenodd" fill="#FFF" d="M238.639 43.629h-1.459v2.139h-.679v-6.061h2.25c1.356 0 2.249.727 2.249 1.922v.017c0 1.308-1.082 1.983-2.361 1.983zm1.674-1.974c0-.867-.644-1.317-1.614-1.317h-1.519v2.667h1.485c.995 0 1.648-.537 1.648-1.334v-.016zm-8.866-11.437c-5.459 0-9.502-4.184-9.502-9.407v-.052c0-5.224 4.094-9.459 9.553-9.459 5.459 0 9.502 4.183 9.502 9.407v.052c0 5.223-4.095 9.459-9.553 9.459zm4.549-9.459c0-2.625-1.845-4.912-4.549-4.912-2.679 0-4.473 2.235-4.473 4.86v.052c0 2.625 1.844 4.912 4.524 4.912 2.704 0 4.498-2.235 4.498-4.86v-.052zm-17.398 25.112c-1.829 0-3.056-1.446-3.056-3.117v-.017c0-1.671 1.244-3.135 3.073-3.135s3.056 1.447 3.056 3.118v.017c0 1.671-1.245 3.134-3.073 3.134zm2.369-3.134c0-1.377-.995-2.502-2.369-2.502s-2.353 1.108-2.353 2.485v.017c0 1.376.996 2.502 2.37 2.502 1.373 0 2.352-1.108 2.352-2.485v-.017zm-15.503-31.073h4.902v13.773h8.568v4.417h-13.47v-18.19zm-6.684 34.207c-1.888 0-3.055-1.385-3.055-3.117v-.017c0-1.663 1.21-3.135 3.013-3.135 1.013 0 1.64.294 2.24.806l-.437.519c-.464-.406-.979-.692-1.828-.692-1.332 0-2.285 1.134-2.285 2.485v.017c0 1.445.919 2.52 2.379 2.52.687 0 1.322-.269 1.734-.606v-1.508h-1.828v-.614h2.48v2.416a3.625 3.625 0 0 1-2.413.926zm-11.415-34.207h4.903v13.773h8.567v4.417h-13.47v-18.19zm-6.141 28.043h.679v5.428h3.382v.633h-4.061v-6.061zm-13.247-28.043h14.229v4.287h-9.376v2.755h8.491v3.976h-8.491v2.884h9.502v4.288h-14.355v-18.19zm-6.537 29.134v4.97h-.661v-6.061h.636l3.786 4.857v-4.857h.661v6.061h-.541l-3.881-4.97zm-5.774-15.18c1.845 0 2.931-.883 3.993-2.208l3.69 2.702c-1.668 2.365-3.918 4.106-7.835 4.106-5.054 0-9.123-3.976-9.123-9.407v-.052c0-5.301 3.968-9.459 9.325-9.459 3.614 0 5.939 1.559 7.506 3.794l-3.69 2.936c-1.01-1.299-2.173-2.131-3.866-2.131-2.476 0-4.22 2.157-4.22 4.808v.052c0 2.729 1.744 4.859 4.22 4.859zm-11.499 14.089h.677v6.061h-.677v-6.061zm-7.862-28.043h4.929v18.19h-4.929v-18.19zm3.091 28.674h-2.018v5.43h-.686v-5.43h-2.018v-.631h4.722v.631zm-13.178-10.484h-4.903V16.081h-5.307v-4.417h15.517v4.417h-5.307v13.773zm-6.364 14.71v-4.857h.661v6.061h-.541l-3.881-4.97v4.97h-.661v-6.061h.636l3.786 4.857zM99.476 19.875v9.979h-4.852v-18.19h4.574l7.278 9.615v-9.615h4.852v18.19h-4.296l-7.556-9.979zm-9.61 25.893h-.686v-5.43h-2.018v-.631h4.722v.631h-2.018v5.43zm-9.88-15.55c-5.459 0-9.502-4.184-9.502-9.407v-.052c0-5.224 4.094-9.459 9.553-9.459 5.459 0 9.502 4.183 9.502 9.407v.052c0 5.223-4.095 9.459-9.553 9.459zm4.549-9.459c0-2.625-1.845-4.912-4.549-4.912-2.679 0-4.473 2.235-4.473 4.86v.052c0 2.625 1.845 4.912 4.524 4.912 2.704 0 4.498-2.235 4.498-4.86v-.052zm-16.488 33.01l-.371.22L36.367.225l.37-.219 9.885 16.975v-5.317h5.181l4.22 7.042 4.22-7.042h5.181v18.19h-4.877V19.407l-4.524 7.121h-.101l-4.498-7.069v5.766l16.623 28.544zM30.983 12.958l20.555 35.19-28.619.252 2.322-5.609 16.649-.147-10.81-18.508-13.641 24.313L0 48.602 25.747 3.835l3.229 5.526L9.671 42.928l4.52-.04 16.792-29.93zm41.189 32.81h-.678v-6.061h.678v6.061zm9.619-1.204v-4.857h.661v6.061h-.541l-3.881-4.97v4.97h-.661v-6.061h.636l3.786 4.857zm19.148-4.234h-3.666v2.069h3.279v.623h-3.279v2.121h3.708v.625h-4.387v-6.061h4.345v.623zm9.139-.017c.291.294.463.719.463 1.194v.017c0 1.005-.687 1.594-1.63 1.767l1.845 2.477h-.833l-1.742-2.356h-1.717v2.356h-.679v-6.061h2.585c.738 0 1.33.225 1.708.606zm-3.614.025v2.46h1.845c.902 0 1.545-.468 1.545-1.247v-.018c0-.745-.566-1.195-1.536-1.195h-1.854zm22.049-.675l2.739 6.105h-.73l-.704-1.603h-3.271l-.713 1.603h-.695l2.739-6.105h.635zm1.039 3.888l-1.365-3.091-1.374 3.091h2.739zm23.298-3.949c1.829 0 3.056 1.447 3.056 3.118v.017c0 1.671-1.245 3.134-3.074 3.134-1.829 0-3.056-1.446-3.056-3.117v-.017c0-1.671 1.245-3.135 3.074-3.135zm-2.37 3.135c0 1.376.996 2.502 2.37 2.502 1.373 0 2.352-1.108 2.352-2.485v-.017c0-1.377-.996-2.502-2.37-2.502-1.373 0-2.352 1.108-2.352 2.485v.017zm23.381-3.074l2.738 6.105h-.729l-.704-1.603h-3.271l-.713 1.603h-.695l2.738-6.105h.636zm1.039 3.888l-1.366-3.091-1.373 3.091h2.739zm35.554-3.238c.292.294.464.719.464 1.194v.017c0 1.005-.687 1.594-1.631 1.767l1.845 2.477h-.833l-1.742-2.356h-1.717v2.356h-.679v-6.061h2.585c.738 0 1.33.225 1.708.606zm-3.614.025v2.46h1.845c.902 0 1.546-.468 1.546-1.247v-.018c0-.745-.567-1.195-1.537-1.195h-1.854zm20.289 2.849c0 1.307.687 2.043 1.837 2.043 1.108 0 1.812-.676 1.812-2v-3.523h.678v3.472c0 1.766-1.004 2.683-2.507 2.683-1.485 0-2.498-.917-2.498-2.632v-3.523h.678v3.48z"/></svg>